<?xml version="1.0" standalone="no"?>
<!DOCTYPE svg PUBLIC "-//W3C//DTD SVG 20010904//EN"
 "http://www.w3.org/TR/2001/REC-SVG-20010904/DTD/svg10.dtd">
<svg version="1.0" xmlns="http://www.w3.org/2000/svg"
 width="200.000000pt" height="200.000000pt" viewBox="0 0 200.000000 200.000000"
 preserveAspectRatio="xMidYMid meet">
<metadata>
Created by potrace 1.11, written by Peter Selinger 2001-2013
</metadata>
<g transform="translate(0.000000,200.000000) scale(0.100000,-0.100000)"
fill="#000000" stroke="none">
<path d="M743 1758 c-13 -6 -23 -15 -23 -20 0 -5 -4 -6 -10 -3 -5 3 -10 1 -10
-4 0 -6 -5 -11 -11 -11 -18 0 -79 -47 -71 -55 4 -5 2 -5 -5 -1 -11 6 -49 -9
-63 -25 -3 -3 -13 -8 -23 -12 -10 -4 -15 -11 -12 -17 4 -6 -1 -7 -11 -3 -13 5
-15 3 -9 -7 5 -8 4 -11 -3 -6 -14 9 -84 -33 -75 -47 3 -6 1 -7 -6 -3 -7 5 -27
-2 -46 -16 l-35 -23 3 -135 c1 -74 6 -141 10 -147 5 -7 4 -13 -1 -13 -10 0 -8
-103 3 -120 3 -5 1 -11 -5 -15 -6 -4 -8 -10 -6 -14 3 -4 6 -56 7 -117 1 -60 7
-115 13 -123 7 -10 7 -13 0 -8 -7 4 -9 -32 -7 -116 1 -67 3 -146 3 -175 1 -49
4 -53 33 -67 18 -8 61 -31 97 -51 36 -20 88 -49 115 -64 28 -15 83 -46 124
-69 74 -41 101 -50 101 -31 0 6 7 10 16 10 8 0 12 4 9 10 -3 5 0 7 8 5 7 -3
25 5 39 17 14 13 30 24 36 25 6 2 65 35 132 75 66 40 131 79 145 86 14 7 29
21 35 32 5 10 39 35 75 55 36 20 65 40 65 44 0 4 6 8 13 8 14 0 150 84 155 95
2 5 8 6 13 2 5 -3 9 0 9 5 0 6 7 11 16 11 8 0 12 4 9 10 -3 6 1 7 9 4 11 -4
19 2 25 17 5 13 10 18 10 10 1 -11 4 -11 16 -1 11 9 14 39 13 146 -1 86 -6
134 -13 134 -6 0 -7 3 0 8 13 9 16 62 3 62 -5 0 -6 6 -1 13 8 12 6 107 -2 115
-2 3 0 12 4 21 6 10 4 21 -5 29 -8 7 -14 10 -14 6 0 -4 -8 -1 -17 7 -18 14
-44 30 -144 84 -32 16 -101 54 -155 84 -55 30 -130 71 -169 90 -38 20 -71 39
-73 44 -2 4 -8 7 -13 7 -5 0 -27 11 -49 25 -22 14 -40 22 -40 18 0 -5 -4 -3
-8 3 -7 12 -190 114 -201 113 -3 0 -16 -5 -28 -11z m147 -78 c0 -5 -5 -10 -11
-10 -5 0 -7 5 -4 10 3 6 8 10 11 10 2 0 4 -4 4 -10z m-85 -49 c3 -5 2 -12 -3
-15 -5 -3 -9 1 -9 9 0 17 3 19 12 6z m-235 -31 c0 -5 -2 -10 -4 -10 -3 0 -8 5
-11 10 -3 6 -1 10 4 10 6 0 11 -4 11 -10z m-80 -74 c0 -2 -7 -7 -16 -10 -8 -3
-12 -2 -9 4 6 10 25 14 25 6z m75 -75 c3 -5 2 -12 -3 -15 -5 -3 -9 1 -9 9 0
17 3 19 12 6z m120 -51 c3 -5 1 -10 -4 -10 -6 0 -11 5 -11 10 0 6 2 10 4 10 3
0 8 -4 11 -10z m85 6 c0 -3 -4 -8 -10 -11 -5 -3 -10 -1 -10 4 0 6 5 11 10 11
6 0 10 -2 10 -4z m80 -6 c0 -5 -2 -10 -4 -10 -3 0 -8 5 -11 10 -3 6 -1 10 4
10 6 0 11 -4 11 -10z m-445 -119 c3 -5 2 -12 -3 -15 -5 -3 -9 1 -9 9 0 17 3
19 12 6z m969 1 c3 -5 -1 -9 -9 -9 -8 0 -12 4 -9 9 3 4 7 8 9 8 2 0 6 -4 9 -8z
m116 -356 c0 -3 -4 -8 -10 -11 -5 -3 -10 -1 -10 4 0 6 5 11 10 11 6 0 10 -2
10 -4z m80 -6 c0 -5 -2 -10 -4 -10 -3 0 -8 5 -11 10 -3 6 -1 10 4 10 6 0 11
-4 11 -10z m-5 -80 c3 -5 1 -10 -4 -10 -6 0 -11 5 -11 10 0 6 2 10 4 10 3 0 8
-4 11 -10z m-1040 -29 c3 -5 2 -12 -3 -15 -5 -3 -9 1 -9 9 0 17 3 19 12 6z
m1045 -51 c0 -5 -5 -10 -11 -10 -5 0 -7 5 -4 10 3 6 8 10 11 10 2 0 4 -4 4
-10z m-880 -160 c0 -5 -2 -10 -4 -10 -3 0 -8 5 -11 10 -3 6 -1 10 4 10 6 0 11
-4 11 -10z m80 0 c0 -5 -5 -10 -11 -10 -5 0 -7 5 -4 10 3 6 8 10 11 10 2 0 4
-4 4 -10z m80 0 c0 -5 -2 -10 -4 -10 -3 0 -8 5 -11 10 -3 6 -1 10 4 10 6 0 11
-4 11 -10z m80 0 c0 -5 -2 -10 -4 -10 -3 0 -8 5 -11 10 -3 6 -1 10 4 10 6 0
11 -4 11 -10z m-485 -80 c3 -5 1 -10 -4 -10 -6 0 -11 5 -11 10 0 6 2 10 4 10
3 0 8 -4 11 -10z m440 -39 c3 -5 2 -12 -3 -15 -5 -3 -9 1 -9 9 0 17 3 19 12 6z
m280 0 c3 -5 2 -12 -3 -15 -5 -3 -9 1 -9 9 0 17 3 19 12 6z m-640 -41 c3 -5 1
-10 -4 -10 -6 0 -11 5 -11 10 0 6 2 10 4 10 3 0 8 -4 11 -10z m85 6 c0 -3 -4
-8 -10 -11 -5 -3 -10 -1 -10 4 0 6 5 11 10 11 6 0 10 -2 10 -4z m440 -46 c0
-5 -2 -10 -4 -10 -3 0 -8 5 -11 10 -3 6 -1 10 4 10 6 0 11 -4 11 -10z m-360
-40 c0 -5 -5 -10 -11 -10 -5 0 -7 5 -4 10 3 6 8 10 11 10 2 0 4 -4 4 -10z m80
6 c0 -3 -4 -8 -10 -11 -5 -3 -10 -1 -10 4 0 6 5 11 10 11 6 0 10 -2 10 -4z
m75 -6 c3 -5 1 -10 -4 -10 -6 0 -11 5 -11 10 0 6 2 10 4 10 3 0 8 -4 11 -10z"/>
</g>
</svg>
